HIERARCHY
ROOT Hips
{
	OFFSET 0.000000 0.000000 0.000000 
	CHANNELS 6 Xposition Yposition Zposition Zrotation Yrotation Xrotation
	JOINT LeftUpLeg
	{
		OFFSET 1.363060 -1.794630 0.839290 
		CHANNELS 3 Zrotation Yrotation Xrotation
		JOINT LeftLeg
		{
			OFFSET 2.448110 -6.726130 0.000000 
			CHANNELS 3 Zrotation Yrotation Xrotation
			JOINT LeftFoot
			{
				OFFSET 2.562200 -7.039590 0.000000 
				CHANNELS 3 Zrotation Yrotation Xrotation
				JOINT LeftToeBase
				{
					OFFSET 0.157640 -0.433110 2.322550 
					CHANNELS 3 Zrotation Yrotation Xrotation
					End Site
					{
						OFFSET 0.000000 0.000000 0.000000 
					}
				}
			}
		}
	}
	JOINT RightUpLeg
	{
		OFFSET -1.305520 -1.794630 0.839290 
		CHANNELS 3 Zrotation Yrotation Xrotation
		JOINT RightLeg
		{
			OFFSET -2.542530 -6.985550 0.000000 
			CHANNELS 3 Zrotation Yrotation Xrotation
			JOINT RightFoot
			{
				OFFSET -2.568260 -7.056230 0.000000 
				CHANNELS 3 Zrotation Yrotation Xrotation
				JOINT RightToeBase
				{
					OFFSET -0.164730 -0.452590 2.363150 
					CHANNELS 3 Zrotation Yrotation Xrotation
					End Site
					{
						OFFSET 0.000000 0.000000 0.000000 
					}
				}
			}
		}
	}
	JOINT Spine
	{
		OFFSET 0.028270 2.035590 -0.193380 
		CHANNELS 3 Zrotation Yrotation Xrotation
		JOINT Spine1
		{
			OFFSET 0.056720 2.048850 -0.042750 
			CHANNELS 3 Zrotation Yrotation Xrotation
			JOINT Neck1
			{
				OFFSET -0.054170 1.746240 0.172020 
				CHANNELS 3 Zrotation Yrotation Xrotation
				JOINT Head
				{
					OFFSET 0.104070 1.761360 -0.123970 
					CHANNELS 3 Zrotation Yrotation Xrotation
					End Site
					{
						OFFSET 0.000000 0.000000 0.000000 
					}
				}
			}
			JOINT LeftArm
			{
				OFFSET 3.362410 1.200890 -0.311210 
				CHANNELS 3 Zrotation Yrotation Xrotation
				JOINT LeftForeArm
				{
					OFFSET 4.983000 -0.000000 -0.000000 
					CHANNELS 3 Zrotation Yrotation Xrotation
					JOINT LeftHand
					{
						OFFSET 3.483560 -0.000000 -0.000000 
						CHANNELS 3 Zrotation Yrotation Xrotation
						JOINT LeftHandIndex1
						{
							OFFSET 0.715260 -0.000000 -0.000000 
							CHANNELS 3 Zrotation Yrotation Xrotation
							End Site
							{
								OFFSET 0.000000 0.000000 0.000000 
							}
						}
					}
				}
			}
			JOINT RightArm
			{
				OFFSET -3.136600 1.374050 -0.404650 
				CHANNELS 3 Zrotation Yrotation Xrotation
				JOINT RightForeArm
				{
					OFFSET -5.241900 -0.000000 -0.000000 
					CHANNELS 3 Zrotation Yrotation Xrotation
					JOINT RightHand
					{
						OFFSET -3.444170 -0.000000 -0.000000 
						CHANNELS 3 Zrotation Yrotation Xrotation
						JOINT RightHandIndex1
						{
							OFFSET -0.622530 -0.000000 -0.000000 
							CHANNELS 3 Zrotation Yrotation Xrotation
							End Site
							{
								OFFSET 0.000000 0.000000 0.000000 
							}
						}
					}
				}
			}
		}
	}
}
MOTION
Frames: 14
Frame Time: 0.041667
-31.052908 17.468156 1.165410 22.910717 86.846284 18.246327 -17.832486 7.493963 12.877204 -1.900506 0.731627 1.993227 -1.229407 14.279738 -16.002296 0.226300 -3.062400 -8.452400 21.288697 -12.081028 16.230319 -0.538469 -3.215239 3.518708 -0.419406 -0.117469 -14.723932 -0.468900 -4.391800 12.181800 -0.513562 1.843959 -2.154300 2.142248 0.465764 3.120554 2.473024 2.633585 12.576399 -1.502400 1.608100 13.338600 -3.480077 -0.143831 -0.009290 -1.440878 -0.337349 -0.000068 -0.059275 -0.017139 -0.000034 0.000000 0.000000 0.000000 3.849745 -1.102517 0.005691 -0.461836 -0.118542 0.000084 -0.044286 0.018727 0.000042 0.000000 0.000000 0.000000 
-31.048815 17.470714 1.167149 23.901494 86.857377 19.192309 -17.928619 7.535483 12.902138 -1.900424 0.747189 2.029697 -1.226419 14.263064 -15.980202 0.267100 -3.324500 -9.183500 20.780153 -12.845491 16.304224 -0.541424 -3.098853 3.168689 -0.413640 0.457890 -14.275418 -0.501400 -4.539500 12.599600 -0.492408 1.730957 -2.170829 2.391012 0.386626 3.134982 2.786468 2.670784 12.820298 -1.194400 1.612000 13.608400 -3.474483 -0.143049 -0.009365 -1.443034 -0.338480 -0.000069 -0.059489 -0.017178 -0.000034 0.000000 0.000000 0.000000 3.853618 -1.087362 0.005709 -0.463924 -0.118781 0.000084 -0.044314 0.018615 0.000042 0.000000 0.000000 0.000000 
-31.046667 17.471021 1.170219 25.260266 86.812463 20.553200 -18.196576 7.246681 13.069911 -1.923340 0.701491 1.889888 -1.267772 14.589539 -16.166686 0.250800 -3.222700 -8.899300 20.761644 -12.492294 16.189413 -0.543524 -3.231388 3.568582 -0.428604 0.323150 -14.634357 -0.512600 -4.589100 12.740300 -0.480170 1.710635 -2.176492 2.522786 0.379636 3.056346 2.601684 2.884579 12.741149 -1.342700 1.703400 13.517800 -3.445592 -0.134682 -0.009420 -1.452817 -0.340204 -0.000070 -0.060456 -0.017384 -0.000035 0.000000 0.000000 0.000000 3.891956 -1.090856 0.005896 -0.477977 -0.122113 0.000087 -0.044739 0.018707 0.000043 0.000000 0.000000 0.000000 
-31.044313 17.468872 1.173084 24.895625 86.845146 20.135421 -18.269362 6.889458 13.357037 -1.945094 0.628752 1.715851 -1.310477 14.938531 -16.436452 0.220500 -3.022600 -8.341700 20.705591 -12.766925 16.605020 -0.539746 -2.984539 2.866264 -0.407224 0.299699 -14.219742 -0.491100 -4.493500 12.469300 -0.462310 1.714358 -2.168352 2.599489 0.372704 3.071827 2.573490 2.845933 12.709883 -1.373800 1.684000 13.517400 -3.434967 -0.132612 -0.009447 -1.456349 -0.341002 -0.000070 -0.060800 -0.017460 -0.000035 0.000000 0.000000 0.000000 3.905501 -1.090632 0.005965 -0.483102 -0.123254 0.000088 -0.044868 0.018726 0.000044 0.000000 0.000000 0.000000 
-31.041960 17.467338 1.173596 23.041191 86.882270 18.224945 -17.933083 7.153441 13.291038 -1.922221 0.668320 1.846236 -1.271632 14.639715 -16.281014 0.210900 -2.956700 -8.158300 20.970412 -12.719183 16.654681 -0.535417 -2.999452 2.896869 -0.408341 0.303609 -14.245552 -0.497000 -4.520000 12.544300 -0.445320 1.727275 -2.160257 2.593473 0.370290 3.102444 2.788809 2.889848 12.753567 -1.173900 1.699000 13.576100 -3.447553 -0.133697 -0.009433 -1.452410 -0.340244 -0.000070 -0.060398 -0.017382 -0.000035 0.000000 0.000000 0.000000 3.889474 -1.088740 0.005897 -0.477134 -0.121953 0.000087 -0.044676 0.018699 0.000043 0.000000 0.000000 0.000000 
-31.039402 17.465905 1.173902 23.181788 86.749364 18.406471 -17.815854 7.553293 13.027770 -1.898637 0.733918 1.981810 -1.232518 14.309832 -16.001947 0.194400 -2.839600 -7.832600 21.118042 -12.316439 16.452468 -0.536558 -3.170372 3.416962 -0.427581 0.157309 -14.688184 -0.491100 -4.493100 12.468300 -0.186449 1.776598 -1.884376 1.416896 0.408515 2.818925 3.249019 2.459127 12.725507 -1.288600 1.580100 13.520200 -93.471486 -2.258619 39.228794 10.534176 -18.461057 -1.901813 -0.132136 0.774588 17.189055 -7.125000 0.000000 0.000000 5.319261 -0.737681 0.013978 -1.122145 -0.285656 0.000187 -0.061324 0.018492 0.000093 0.000000 0.000000 0.000000 
-31.037867 17.463245 1.176870 23.685373 86.737682 18.992581 -17.805670 7.663805 12.875267 -1.893163 0.750469 2.015601 -1.232465 14.261920 -15.875507 0.219200 -3.013700 -8.316900 21.175735 -12.114799 16.265708 -0.538672 -3.257161 3.669043 -0.437107 0.041902 -14.936518 -0.454100 -4.323300 11.987900 -0.189515 1.792241 -1.909724 1.415632 0.424088 2.745099 3.142599 2.581019 12.719049 -1.381400 1.638400 13.516400 -93.480183 -2.171562 39.067126 10.553023 -18.496540 -1.910173 -0.114639 0.771421 17.349571 -7.125000 0.000000 0.000000 5.335854 -0.740797 0.014082 -1.128770 -0.287035 0.000188 -0.061488 0.018570 0.000094 0.000000 0.000000 0.000000 
-31.036435 17.461812 1.179325 23.491616 86.770232 18.813964 -17.753465 7.683112 12.829299 -1.889416 0.770434 2.070672 -1.244790 14.278408 -15.723987 0.294500 -3.489700 -9.645200 21.237939 -12.098489 16.273028 -0.537688 -3.244866 3.631968 -0.436136 0.002549 -14.942314 -0.447500 -4.291800 11.899200 -0.187090 1.791763 -1.917849 1.406555 0.425093 2.725686 3.110757 2.494898 12.728257 -1.428900 1.607900 13.530800 -93.459838 -2.136696 39.086038 10.560972 -18.510531 -1.914047 -0.094812 0.769895 17.331369 -7.125000 0.000000 0.000000 5.338720 -0.740835 0.014105 -1.130103 -0.287253 0.000189 -0.061501 0.018585 0.000094 0.000000 0.000000 0.000000 
-31.032240 17.461198 1.180962 25.088481 86.770808 20.421358 -18.056990 7.369181 13.009707 -1.912709 0.723727 1.929646 -1.284676 14.578353 -15.848868 0.323500 -3.656100 -10.111000 21.073341 -12.103870 16.335238 -0.537887 -3.228352 3.596039 -0.429622 -0.089138 -14.870165 -0.427600 -4.196500 11.630300 -0.202312 1.773487 -1.911786 1.437567 0.414251 2.792344 3.144020 2.577731 12.805582 -1.387000 1.644200 13.598500 -93.482134 -2.139190 38.938104 10.554824 -18.504683 -1.912410 -0.094472 0.771164 17.486705 -7.125000 0.000000 0.000000 5.339527 -0.734305 0.014086 -1.130782 -0.287544 0.000188 -0.061528 0.018501 0.000094 0.000000 0.000000 0.000000 
-31.027124 17.460994 1.181474 27.553400 86.679602 22.933954 -18.487190 7.094112 13.111533 -1.939533 0.689307 1.803806 -1.305599 14.847020 -16.205433 0.296700 -3.502600 -9.681500 20.671786 -12.238363 16.287745 -0.544265 -3.235880 3.634340 -0.426685 0.025207 -14.736422 -0.398500 -4.053100 11.226100 -0.227405 1.771000 -1.914419 1.500636 0.415852 2.823430 3.181875 2.516026 12.731893 -1.366100 1.615900 13.517000 -93.532487 -2.093845 38.739333 10.574687 -18.539625 -1.917683 -0.131237 0.776984 17.762683 -7.125000 0.000000 0.000000 5.344526 -0.727875 0.014092 -1.132780 -0.288211 0.000188 -0.061596 0.018434 0.000094 0.000000 0.000000 0.000000 
-31.024157 17.462938 1.180656 29.505060 86.561200 24.899024 -18.613868 7.474650 12.839783 -1.923205 0.781827 2.011472 -1.259954 14.539573 -16.066731 0.261800 -3.291400 -9.091200 20.280759 -12.357750 16.256443 -0.552195 -3.242519 3.675863 -0.434744 0.293162 -14.721365 -0.449700 -4.302300 11.928800 -0.248953 1.792924 -1.921612 1.558969 0.431570 2.803490 3.246768 2.545690 12.699416 -1.306000 1.626600 13.464000 -93.549832 -2.046226 38.786985 10.601991 -18.583614 -1.927207 -0.129612 0.773505 17.831056 -7.125000 0.000000 0.000000 5.347383 -0.723953 0.014105 -1.133986 -0.288680 0.000189 -0.061642 0.018407 0.000094 0.000000 0.000000 0.000000 
-31.022110 17.465803 1.182804 30.505501 86.493540 25.902496 -18.598181 7.817294 12.620542 -1.901870 0.858165 2.195141 -1.218653 14.190093 -15.756925 0.292300 -3.476700 -9.608900 20.059446 -12.457841 16.211974 -0.555982 -3.262533 3.742449 -0.442731 0.486849 -14.758938 -0.479400 -4.440200 12.318500 -0.262076 1.823967 -1.922653 1.599083 0.449555 2.793918 3.280025 2.530530 12.664983 -1.286300 1.621800 13.423500 -93.525820 -2.055424 38.927699 10.603371 -18.587062 -1.927370 -0.136572 0.772677 17.811102 -7.125000 0.000000 0.000000 5.352287 -0.721339 0.014137 -1.136215 -0.289307 0.000189 -0.061690 0.018401 0.000095 0.000000 0.000000 0.000000 
-31.018427 17.465700 1.185771 28.373633 86.541584 23.787404 -18.364992 7.726924 12.691730 -1.900872 0.832002 2.159626 -1.233604 14.261000 -15.753514 0.277700 -3.389400 -9.364800 20.334630 -12.461433 16.122580 -0.553953 -3.295909 3.808941 -0.440739 0.510153 -14.727410 -0.427700 -4.197300 11.632500 -0.246223 1.859442 -1.922072 1.541948 0.462626 2.809005 3.275609 2.501579 12.682999 -1.297400 1.613700 13.437600 -93.531443 -2.094662 38.865691 10.574110 -18.540029 -1.916206 -0.149914 0.782003 17.968785 -7.125000 0.000000 0.000000 5.345499 -0.723676 0.014085 -1.132937 -0.288412 0.000188 -0.061612 0.018391 0.000094 0.000000 0.000000 0.000000 
-31.014232 17.463859 1.186795 25.023890 86.632647 20.415789 -17.996471 7.606011 12.832557 -1.899689 0.795554 2.116708 -1.234300 14.308779 -15.964496 0.231300 -3.095700 -8.545300 20.865855 -12.271119 16.177318 -0.548048 -3.288186 3.762964 -0.436741 0.364527 -14.743919 -0.438100 -4.247100 11.772900 -0.221968 1.884110 -1.925476 1.416837 0.472923 2.784416 3.300861 2.474588 12.696453 -1.280400 1.606900 13.444200 -93.526170 -2.091438 38.756660 10.552248 -18.500686 -1.910065 -0.111381 0.782653 18.009875 -7.125000 0.000000 0.000000 5.325748 -0.731137 0.013973 -1.123968 -0.286167 0.000187 -0.061416 0.018416 0.000093 0.000000 0.000000 0.000000 
